<svg width="32" height="32" viewBox="0 0 32 32" fill="none" xmlns="http://www.w3.org/2000/svg">
<path d="M3.84351 17.4756C3.78174 16.9609 3.75 16.4497 3.75 16C3.75 9.28735 9.28735 3.75 16 3.75C19.1311 3.75 22.0625 5.01245 24.2188 6.9812L23.1375 8.0813C22.8938 8.32495 22.4062 8.66235 22.5 9C22.6125 9.3186 23.2688 9.5813 23.6062 9.65625C23.7949 9.69409 29.9946 11.6919 29.5999 11.6125C30.1021 11.7798 30.8447 11.2441 30.7063 10.5063C30.6682 10.3174 29.2957 3.43042 29.375 3.82495C29.3 3.48755 29.3374 2.59375 29 2.5C28.6814 2.40625 28.0437 3.11255 27.8 3.3562L26.8813 4.2561C24.05 1.61255 20.1624 0 16 0C7.2063 0 0 7.2063 0 16V16.0374C0 16.5659 0.0241699 16.9744 0.0522461 17.2869C0.0895996 17.7009 0.394775 18.04 0.80249 18.1218L2.72852 18.5068C3.35547 18.6323 3.91919 18.1067 3.84351 17.4756Z" fill="#909090"/>
<path d="M31.2031 13.8767L29.2715 13.4832C28.6438 13.3552 28.0762 13.8813 28.1533 14.5154C28.2202 15.0625 28.25 15.5945 28.25 16C28.25 22.7124 22.7126 28.25 16 28.25C12.8689 28.25 9.9375 26.9876 7.78125 25L8.86255 23.9187C9.1062 23.6751 9.19995 23.3188 9.1062 22.9812C8.99365 22.6624 8.7312 22.4187 8.3938 22.3438C8.20508 22.3057 2.00537 20.3081 2.40015 20.3875C2.0813 20.3313 1.76245 20.4251 1.5564 20.6499C1.3313 20.8562 1.23755 21.1936 1.2937 21.4937C1.33179 21.6824 2.70459 28.5068 2.62524 28.1123C2.69995 28.45 2.94385 28.7312 3.28125 28.8247C3.67261 28.9229 3.99927 28.8042 4.19995 28.5811L5.1001 27.6812C7.93115 30.325 11.8188 32 16 32C24.7937 32 32 24.7937 32 16V15.9436C32 15.5281 31.9849 15.1201 31.9502 14.7146C31.9146 14.3003 31.6106 13.96 31.2031 13.8767Z" fill="#909090"/>
</svg>

