<svg width="1211pt" height="404pt" viewBox="0.00 0.00 1210.67 404.00" xmlns="http://www.w3.org/2000/svg" xmlns:xlink="http://www.w3.org/1999/xlink">
<g id="graph0" class="graph" transform="scale(1 1) rotate(0) translate(4 400)">
<title>%0</title>
<!-- SelectableComponent -->
<g id="node1" class="node">
<title>SelectableComponent</title>
<ellipse fill="none" stroke="#888888" cx="492.6702" cy="-306" rx="95.5664" ry="18"></ellipse>
<text text-anchor="middle" x="492.6702" y="-301.8" font-family="Times,serif" font-size="14.00" fill="#888888">SelectableComponent</text>
</g>
<!-- Component -->
<g id="node2" class="node">
<title>Component</title>
<ellipse fill="none" stroke="#888888" cx="492.6702" cy="-378" rx="56.2034" ry="18"></ellipse>
<text text-anchor="middle" x="492.6702" y="-373.8" font-family="Times,serif" font-size="14.00" fill="#888888">Component</text>
</g>
<!-- SelectableComponent&#45;&gt;Component -->
<g id="edge1" class="edge">
<title>SelectableComponent-&gt;Component</title>
<path fill="none" stroke="#888800" d="M492.6702,-324.1686C492.6702,-331.869 492.6702,-341.0257 492.6702,-349.5834"></path>
<polygon fill="#888800" stroke="#888800" points="489.1703,-349.5867 492.6702,-359.5867 496.1703,-349.5868 489.1703,-349.5867"></polygon>
</g>
<!-- SelectablePoint -->
<g id="node3" class="node">
<title>SelectablePoint</title>
<ellipse fill="none" stroke="#888888" cx="287.6702" cy="-234" rx="71.221" ry="18"></ellipse>
<text text-anchor="middle" x="287.6702" y="-229.8" font-family="Times,serif" font-size="14.00" fill="#888888">SelectablePoint</text>
</g>
<!-- SelectablePoint&#45;&gt;SelectableComponent -->
<g id="edge2" class="edge">
<title>SelectablePoint-&gt;SelectableComponent</title>
<path fill="none" stroke="#888800" d="M329.6497,-248.744C360.7814,-259.6781 403.5176,-274.6879 437.4231,-286.5961"></path>
<polygon fill="#888800" stroke="#888800" points="436.5912,-290.0135 447.186,-290.0251 438.9108,-283.409 436.5912,-290.0135"></polygon>
</g>
<!-- LaTeX -->
<g id="node4" class="node">
<title>LaTeX</title>
<ellipse fill="none" stroke="#888888" cx="492.6702" cy="-234" rx="38.2607" ry="18"></ellipse>
<text text-anchor="middle" x="492.6702" y="-229.8" font-family="Times,serif" font-size="14.00" fill="#888888">LaTeX</text>
</g>
<!-- LaTeX&#45;&gt;SelectableComponent -->
<g id="edge3" class="edge">
<title>LaTeX-&gt;SelectableComponent</title>
<path fill="none" stroke="#888800" d="M492.6702,-252.1686C492.6702,-259.869 492.6702,-269.0257 492.6702,-277.5834"></path>
<polygon fill="#888800" stroke="#888800" points="489.1703,-277.5867 492.6702,-287.5867 496.1703,-277.5868 489.1703,-277.5867"></polygon>
</g>
<!-- Shape -->
<g id="node5" class="node">
<title>Shape</title>
<ellipse fill="none" stroke="#888888" cx="711.6702" cy="-234" rx="34.7709" ry="18"></ellipse>
<text text-anchor="middle" x="711.6702" y="-229.8" font-family="Times,serif" font-size="14.00" fill="#888888">Shape</text>
</g>
<!-- Shape&#45;&gt;SelectableComponent -->
<g id="edge4" class="edge">
<title>Shape-&gt;SelectableComponent</title>
<path fill="none" stroke="#888800" d="M682.1349,-243.7102C648.4486,-254.7852 592.5618,-273.1589 550.1931,-287.0884"></path>
<polygon fill="#888800" stroke="#888800" points="548.9618,-283.8088 540.5552,-290.257 551.1481,-290.4586 548.9618,-283.8088"></polygon>
</g>
<!-- IntersectPoint -->
<g id="node6" class="node">
<title>IntersectPoint</title>
<ellipse fill="none" stroke="#888888" cx="64.6702" cy="-162" rx="64.8409" ry="18"></ellipse>
<text text-anchor="middle" x="64.6702" y="-157.8" font-family="Times,serif" font-size="14.00" fill="#888888">IntersectPoint</text>
</g>
<!-- IntersectPoint&#45;&gt;SelectablePoint -->
<g id="edge5" class="edge">
<title>IntersectPoint-&gt;SelectablePoint</title>
<path fill="none" stroke="#888800" d="M107.1397,-175.7121C143.1374,-187.3347 194.9613,-204.0671 233.8582,-216.6257"></path>
<polygon fill="#888800" stroke="#888800" points="232.8595,-219.9811 243.4512,-219.723 235.0103,-213.3197 232.8595,-219.9811"></polygon>
</g>
<!-- DraggablePoint -->
<g id="node7" class="node">
<title>DraggablePoint</title>
<ellipse fill="none" stroke="#888888" cx="218.6702" cy="-162" rx="71.7892" ry="18"></ellipse>
<text text-anchor="middle" x="218.6702" y="-157.8" font-family="Times,serif" font-size="14.00" fill="#888888">DraggablePoint</text>
</g>
<!-- DraggablePoint&#45;&gt;SelectablePoint -->
<g id="edge6" class="edge">
<title>DraggablePoint-&gt;SelectablePoint</title>
<path fill="none" stroke="#888800" d="M235.7264,-179.7978C244.1657,-188.604 254.4948,-199.3821 263.7129,-209.0011"></path>
<polygon fill="#888800" stroke="#888800" points="261.3642,-211.6087 270.8102,-216.407 266.4181,-206.7654 261.3642,-211.6087"></polygon>
</g>
<!-- MidPoint -->
<g id="node8" class="node">
<title>MidPoint</title>
<ellipse fill="none" stroke="#888888" cx="355.6702" cy="-162" rx="47.5506" ry="18"></ellipse>
<text text-anchor="middle" x="355.6702" y="-157.8" font-family="Times,serif" font-size="14.00" fill="#888888">MidPoint</text>
</g>
<!-- MidPoint&#45;&gt;SelectablePoint -->
<g id="edge7" class="edge">
<title>MidPoint-&gt;SelectablePoint</title>
<path fill="none" stroke="#888800" d="M339.5552,-179.063C331.105,-188.0102 320.5944,-199.1391 311.2473,-209.036"></path>
<polygon fill="#888800" stroke="#888800" points="308.7014,-206.6342 304.3797,-216.3076 313.7905,-211.4406 308.7014,-206.6342"></polygon>
</g>
<!-- Point -->
<g id="node9" class="node">
<title>Point</title>
<ellipse fill="none" stroke="#888888" cx="124.6702" cy="-90" rx="31.3583" ry="18"></ellipse>
<text text-anchor="middle" x="124.6702" y="-85.8" font-family="Times,serif" font-size="14.00" fill="#888888">Point</text>
</g>
<!-- Point&#45;&gt;DraggablePoint -->
<g id="edge8" class="edge">
<title>Point-&gt;DraggablePoint</title>
<path fill="none" stroke="#888800" d="M143.6925,-104.5703C156.3389,-114.2568 173.2342,-127.1979 187.785,-138.3432"></path>
<polygon fill="#888800" stroke="#888800" points="185.9644,-141.3575 196.0315,-144.6597 190.221,-135.8003 185.9644,-141.3575"></polygon>
</g>
<!-- PinPoint -->
<g id="node10" class="node">
<title>PinPoint</title>
<ellipse fill="none" stroke="#888888" cx="218.6702" cy="-90" rx="44.1198" ry="18"></ellipse>
<text text-anchor="middle" x="218.6702" y="-85.8" font-family="Times,serif" font-size="14.00" fill="#888888">PinPoint</text>
</g>
<!-- PinPoint&#45;&gt;DraggablePoint -->
<g id="edge9" class="edge">
<title>PinPoint-&gt;DraggablePoint</title>
<path fill="none" stroke="#888800" d="M218.6702,-108.1686C218.6702,-115.869 218.6702,-125.0257 218.6702,-133.5834"></path>
<polygon fill="#888800" stroke="#888800" points="215.1703,-133.5867 218.6702,-143.5867 222.1703,-133.5868 215.1703,-133.5867"></polygon>
</g>
<!-- LineShape -->
<g id="node11" class="node">
<title>LineShape</title>
<ellipse fill="none" stroke="#888888" cx="578.6702" cy="-162" rx="52.1675" ry="18"></ellipse>
<text text-anchor="middle" x="578.6702" y="-157.8" font-family="Times,serif" font-size="14.00" fill="#888888">LineShape</text>
</g>
<!-- LineShape&#45;&gt;Shape -->
<g id="edge10" class="edge">
<title>LineShape-&gt;Shape</title>
<path fill="none" stroke="#888800" d="M606.8761,-177.2693C627.8263,-188.6108 656.4686,-204.1164 678.5147,-216.0511"></path>
<polygon fill="#888800" stroke="#888800" points="677.0571,-219.242 687.5175,-220.9248 680.3896,-213.0861 677.0571,-219.242"></polygon>
</g>
<!-- AngleMarker -->
<g id="node12" class="node">
<title>AngleMarker</title>
<ellipse fill="none" stroke="#888888" cx="711.6702" cy="-162" rx="63.1015" ry="18"></ellipse>
<text text-anchor="middle" x="711.6702" y="-157.8" font-family="Times,serif" font-size="14.00" fill="#888888">AngleMarker</text>
</g>
<!-- AngleMarker&#45;&gt;Shape -->
<g id="edge11" class="edge">
<title>AngleMarker-&gt;Shape</title>
<path fill="none" stroke="#888800" d="M711.6702,-180.1686C711.6702,-187.869 711.6702,-197.0257 711.6702,-205.5834"></path>
<polygon fill="#888800" stroke="#888800" points="708.1703,-205.5867 711.6702,-215.5867 715.1703,-205.5868 708.1703,-205.5867"></polygon>
</g>
<!-- LengthMarker -->
<g id="node13" class="node">
<title>LengthMarker</title>
<ellipse fill="none" stroke="#888888" cx="859.6702" cy="-162" rx="66.6151" ry="18"></ellipse>
<text text-anchor="middle" x="859.6702" y="-157.8" font-family="Times,serif" font-size="14.00" fill="#888888">LengthMarker</text>
</g>
<!-- LengthMarker&#45;&gt;Shape -->
<g id="edge12" class="edge">
<title>LengthMarker-&gt;Shape</title>
<path fill="none" stroke="#888800" d="M827.191,-177.8007C803.3032,-189.4218 770.8807,-205.1949 746.4645,-217.0731"></path>
<polygon fill="#888800" stroke="#888800" points="744.6643,-214.0565 737.2031,-221.5786 747.7266,-220.3512 744.6643,-214.0565"></polygon>
</g>
<!-- FillableShape -->
<g id="node14" class="node">
<title>FillableShape</title>
<ellipse fill="none" stroke="#888888" cx="1048.6702" cy="-162" rx="64.2804" ry="18"></ellipse>
<text text-anchor="middle" x="1048.6702" y="-157.8" font-family="Times,serif" font-size="14.00" fill="#888888">FillableShape</text>
</g>
<!-- FillableShape&#45;&gt;Shape -->
<g id="edge13" class="edge">
<title>FillableShape-&gt;Shape</title>
<path fill="none" stroke="#888800" d="M997.4872,-172.9353C930.8586,-187.1704 815.6455,-211.7857 753.8026,-224.9984"></path>
<polygon fill="#888800" stroke="#888800" points="753.036,-221.5831 743.988,-227.0953 754.4986,-228.4286 753.036,-221.5831"></polygon>
</g>
<!-- Circle -->
<g id="node15" class="node">
<title>Circle</title>
<ellipse fill="none" stroke="#888888" cx="991.6702" cy="-90" rx="34.7651" ry="18"></ellipse>
<text text-anchor="middle" x="991.6702" y="-85.8" font-family="Times,serif" font-size="14.00" fill="#888888">Circle</text>
</g>
<!-- Circle&#45;&gt;FillableShape -->
<g id="edge14" class="edge">
<title>Circle-&gt;FillableShape</title>
<path fill="none" stroke="#888800" d="M1004.8904,-106.6992C1011.879,-115.5269 1020.6079,-126.5529 1028.4287,-136.4318"></path>
<polygon fill="#888800" stroke="#888800" points="1025.7752,-138.7188 1034.7264,-144.3868 1031.2635,-134.3739 1025.7752,-138.7188"></polygon>
</g>
<!-- Polygon -->
<g id="node16" class="node">
<title>Polygon</title>
<ellipse fill="none" stroke="#888888" cx="1087.6702" cy="-90" rx="43.4629" ry="18"></ellipse>
<text text-anchor="middle" x="1087.6702" y="-85.8" font-family="Times,serif" font-size="14.00" fill="#888888">Polygon</text>
</g>
<!-- Polygon&#45;&gt;FillableShape -->
<g id="edge15" class="edge">
<title>Polygon-&gt;FillableShape</title>
<path fill="none" stroke="#888800" d="M1078.0298,-107.7978C1073.5297,-116.1056 1068.079,-126.1684 1063.1017,-135.3573"></path>
<polygon fill="#888800" stroke="#888800" points="1060.0203,-133.6975 1058.3349,-144.1575 1066.1753,-137.0315 1060.0203,-133.6975"></polygon>
</g>
<!-- Arc -->
<g id="node17" class="node">
<title>Arc</title>
<ellipse fill="none" stroke="#888888" cx="1175.6702" cy="-90" rx="27" ry="18"></ellipse>
<text text-anchor="middle" x="1175.6702" y="-85.8" font-family="Times,serif" font-size="14.00" fill="#888888">Arc</text>
</g>
<!-- Arc&#45;&gt;FillableShape -->
<g id="edge16" class="edge">
<title>Arc-&gt;FillableShape</title>
<path fill="none" stroke="#888800" d="M1154.9828,-101.7283C1136.4501,-112.235 1108.8105,-127.9047 1086.3588,-140.6332"></path>
<polygon fill="#888800" stroke="#888800" points="1084.3847,-137.729 1077.4116,-145.7057 1087.837,-143.8185 1084.3847,-137.729"></polygon>
</g>
<!-- Line -->
<g id="node18" class="node">
<title>Line</title>
<ellipse fill="none" stroke="#888888" cx="309.6702" cy="-90" rx="28.9715" ry="18"></ellipse>
<text text-anchor="middle" x="309.6702" y="-85.8" font-family="Times,serif" font-size="14.00" fill="#888888">Line</text>
</g>
<!-- Line&#45;&gt;LineShape -->
<g id="edge17" class="edge">
<title>Line-&gt;LineShape</title>
<path fill="none" stroke="#888800" d="M331.6282,-101.6789C336.4945,-103.9842 341.688,-106.2335 346.6702,-108 404.5887,-128.5357 473.4365,-143.4254 521.0112,-152.3046"></path>
<polygon fill="#888800" stroke="#888800" points="520.6596,-155.7985 531.1273,-154.1619 521.9237,-148.9135 520.6596,-155.7985"></polygon>
</g>
<!-- LineSegment -->
<g id="node19" class="node">
<title>LineSegment</title>
<ellipse fill="none" stroke="#888888" cx="418.6702" cy="-90" rx="62.5585" ry="18"></ellipse>
<text text-anchor="middle" x="418.6702" y="-85.8" font-family="Times,serif" font-size="14.00" fill="#888888">LineSegment</text>
</g>
<!-- LineSegment&#45;&gt;LineShape -->
<g id="edge18" class="edge">
<title>LineSegment-&gt;LineShape</title>
<path fill="none" stroke="#888800" d="M452.6021,-105.2693C477.3567,-116.4089 511.0385,-131.5657 537.3601,-143.4105"></path>
<polygon fill="#888800" stroke="#888800" points="536.1388,-146.6989 546.6944,-147.6109 539.0114,-140.3154 536.1388,-146.6989"></polygon>
</g>
<!-- Ray -->
<g id="node20" class="node">
<title>Ray</title>
<ellipse fill="none" stroke="#888888" cx="526.6702" cy="-90" rx="27" ry="18"></ellipse>
<text text-anchor="middle" x="526.6702" y="-85.8" font-family="Times,serif" font-size="14.00" fill="#888888">Ray</text>
</g>
<!-- Ray&#45;&gt;LineShape -->
<g id="edge19" class="edge">
<title>Ray-&gt;LineShape</title>
<path fill="none" stroke="#888800" d="M538.4698,-106.3379C544.8201,-115.1306 552.8007,-126.1806 559.974,-136.113"></path>
<polygon fill="#888800" stroke="#888800" points="557.3165,-138.4112 566.0088,-144.4688 562.9912,-134.3128 557.3165,-138.4112"></polygon>
</g>
<!-- ParallelLine -->
<g id="node21" class="node">
<title>ParallelLine</title>
<ellipse fill="none" stroke="#888888" cx="629.6702" cy="-90" rx="58.459" ry="18"></ellipse>
<text text-anchor="middle" x="629.6702" y="-85.8" font-family="Times,serif" font-size="14.00" fill="#888888">ParallelLine</text>
</g>
<!-- ParallelLine&#45;&gt;LineShape -->
<g id="edge20" class="edge">
<title>ParallelLine-&gt;LineShape</title>
<path fill="none" stroke="#888800" d="M617.0635,-107.7978C611.011,-116.3424 603.6435,-126.7436 596.987,-136.141"></path>
<polygon fill="#888800" stroke="#888800" points="594.0561,-134.2236 591.1319,-144.407 599.7682,-138.2698 594.0561,-134.2236"></polygon>
</g>
<!-- PerpLine -->
<g id="node22" class="node">
<title>PerpLine</title>
<ellipse fill="none" stroke="#888888" cx="752.6702" cy="-90" rx="46.3662" ry="18"></ellipse>
<text text-anchor="middle" x="752.6702" y="-85.8" font-family="Times,serif" font-size="14.00" fill="#888888">PerpLine</text>
</g>
<!-- PerpLine&#45;&gt;LineShape -->
<g id="edge21" class="edge">
<title>PerpLine-&gt;LineShape</title>
<path fill="none" stroke="#888800" d="M720.7559,-103.2059C692.9578,-114.7086 652.4137,-131.4855 621.7435,-144.1766"></path>
<polygon fill="#888800" stroke="#888800" points="620.0631,-141.084 612.1612,-148.1417 622.7396,-147.5521 620.0631,-141.084"></polygon>
</g>
<!-- BisectorLine -->
<g id="node23" class="node">
<title>BisectorLine</title>
<ellipse fill="none" stroke="#888888" cx="877.6702" cy="-90" rx="60.8294" ry="18"></ellipse>
<text text-anchor="middle" x="877.6702" y="-85.8" font-family="Times,serif" font-size="14.00" fill="#888888">BisectorLine</text>
</g>
<!-- BisectorLine&#45;&gt;LineShape -->
<g id="edge22" class="edge">
<title>BisectorLine-&gt;LineShape</title>
<path fill="none" stroke="#888800" d="M832.1746,-101.9843C824.0293,-104.0484 815.6091,-106.1295 807.6702,-108 733.3437,-125.5122 713.6766,-125.1806 639.6702,-144 635.8078,-144.9822 631.8219,-146.0452 627.8241,-147.1468"></path>
<polygon fill="#888800" stroke="#888800" points="626.5993,-143.8557 617.9259,-149.9403 628.5006,-150.5925 626.5993,-143.8557"></polygon>
</g>
<!-- Edge -->
<g id="node24" class="node">
<title>Edge</title>
<ellipse fill="none" stroke="#888888" cx="332.6702" cy="-18" rx="30.7597" ry="18"></ellipse>
<text text-anchor="middle" x="332.6702" y="-13.8" font-family="Times,serif" font-size="14.00" fill="#888888">Edge</text>
</g>
<!-- Edge&#45;&gt;LineSegment -->
<g id="edge23" class="edge">
<title>Edge-&gt;LineSegment</title>
<path fill="none" stroke="#888800" d="M350.4895,-32.9184C361.979,-42.5376 377.1718,-55.2572 390.2994,-66.2477"></path>
<polygon fill="#888800" stroke="#888800" points="388.2403,-69.0885 398.1547,-72.8243 392.7339,-63.7212 388.2403,-69.0885"></polygon>
</g>
<!-- Vector -->
<g id="node25" class="node">
<title>Vector</title>
<ellipse fill="none" stroke="#888888" cx="418.6702" cy="-18" rx="37.1174" ry="18"></ellipse>
<text text-anchor="middle" x="418.6702" y="-13.8" font-family="Times,serif" font-size="14.00" fill="#888888">Vector</text>
</g>
<!-- Vector&#45;&gt;LineSegment -->
<g id="edge24" class="edge">
<title>Vector-&gt;LineSegment</title>
<path fill="none" stroke="#888800" d="M418.6702,-36.1686C418.6702,-43.869 418.6702,-53.0257 418.6702,-61.5834"></path>
<polygon fill="#888800" stroke="#888800" points="415.1703,-61.5867 418.6702,-71.5867 422.1703,-61.5868 415.1703,-61.5867"></polygon>
</g>
<!-- Axis -->
<g id="node26" class="node">
<title>Axis</title>
<ellipse fill="none" stroke="#888888" cx="503.6702" cy="-18" rx="29.0529" ry="18"></ellipse>
<text text-anchor="middle" x="503.6702" y="-13.8" font-family="Times,serif" font-size="14.00" fill="#888888">Axis</text>
</g>
<!-- Axis&#45;&gt;LineSegment -->
<g id="edge25" class="edge">
<title>Axis-&gt;LineSegment</title>
<path fill="none" stroke="#888800" d="M486.4692,-32.5703C475.0602,-42.2344 459.8269,-55.1379 446.69,-66.2656"></path>
<polygon fill="#888800" stroke="#888800" points="444.2025,-63.7857 438.8342,-72.9199 448.7269,-69.1271 444.2025,-63.7857"></polygon>
</g>
</g>
</svg>
