<svg width="1379pt" height="423pt" viewBox="0.00 0.00 1378.56 423.00" xmlns="http://www.w3.org/2000/svg" xmlns:xlink="http://www.w3.org/1999/xlink">
<g id="graph0" class="graph" transform="scale(1 1) rotate(0) translate(4 419)">
<title>%0</title>
<!-- draw -->
<g id="node1" class="node">
<title>draw</title>
<ellipse fill="none" stroke="#888888" cx="93.3726" cy="-45" rx="30.1765" ry="18"></ellipse>
<text text-anchor="middle" x="93.3726" y="-40.8" font-family="Times,serif" font-size="14.00" fill="#888888">draw</text>
</g>
<!-- draw.lastEvent = mousedown -->
<g id="node2" class="node">
<title>draw.lastEvent = mousedown</title>
<ellipse fill="none" stroke="#888888" cx="422.231" cy="-85" rx="125.7614" ry="18"></ellipse>
<text text-anchor="middle" x="422.231" y="-80.8" font-family="Times,serif" font-size="14.00" fill="#888888">draw.lastEvent = mousedown</text>
</g>
<!-- draw&#45;&gt;draw.lastEvent = mousedown -->
<g id="edge1" class="edge">
<title>draw-&gt;draw.lastEvent = mousedown</title>
<path fill="none" stroke="#888800" d="M123.1366,-48.6203C166.3732,-53.8793 248.7462,-63.8985 316.1156,-72.0929"></path>
<polygon fill="#888800" stroke="#888800" points="316.0154,-75.6064 326.3649,-73.3395 316.8607,-68.6576 316.0154,-75.6064"></polygon>
<text text-anchor="middle" x="236.0394" y="-69.2" font-family="Times,serif" font-size="14.00" fill="#aaaaaa">down</text>
</g>
<!-- menu (draw.menu) -->
<g id="node19" class="node">
<title>menu (draw.menu)</title>
<ellipse fill="none" stroke="#888888" cx="422.231" cy="-18" rx="84.515" ry="18"></ellipse>
<text text-anchor="middle" x="422.231" y="-13.8" font-family="Times,serif" font-size="14.00" fill="#888888">menu (draw.menu)</text>
</g>
<!-- draw&#45;&gt;menu (draw.menu) -->
<g id="edge23" class="edge">
<title>draw-&gt;menu (draw.menu)</title>
<path fill="none" stroke="#888800" d="M123.4284,-42.5324C170.5045,-38.6673 263.4591,-31.0355 333.2544,-25.3052"></path>
<polygon fill="#888800" stroke="#888800" points="333.6958,-28.7808 343.3758,-24.4742 333.1229,-21.8043 333.6958,-28.7808"></polygon>
<text text-anchor="middle" x="236.0394" y="-40.2" font-family="Times,serif" font-size="14.00" fill="#aaaaaa">right down</text>
</g>
<!-- select box start (draw.selectStart) -->
<g id="node3" class="node">
<title>select box start (draw.selectStart)</title>
<ellipse fill="none" stroke="#888888" cx="798.9901" cy="-137" rx="139.9754" ry="18"></ellipse>
<text text-anchor="middle" x="798.9901" y="-132.8" font-family="Times,serif" font-size="14.00" fill="#888888">select box start (draw.selectStart)</text>
</g>
<!-- draw.lastEvent = mousedown&#45;&gt;select box start (draw.selectStart) -->
<g id="edge2" class="edge">
<title>draw.lastEvent = mousedown-&gt;select box start (draw.selectStart)</title>
<path fill="none" stroke="#888800" d="M512.9536,-97.5215C567.2837,-105.0201 636.5932,-114.5861 693.3785,-122.4236"></path>
<polygon fill="#888800" stroke="#888800" points="693.0809,-125.9156 703.4655,-123.8158 694.038,-118.9813 693.0809,-125.9156"></polygon>
<text text-anchor="middle" x="609.1905" y="-119.2" font-family="Times,serif" font-size="14.00" fill="#aaaaaa">move</text>
</g>
<!-- add point -->
<g id="node6" class="node">
<title>add point</title>
<ellipse fill="none" stroke="#888888" cx="798.9901" cy="-83" rx="47.4956" ry="18"></ellipse>
<text text-anchor="middle" x="798.9901" y="-78.8" font-family="Times,serif" font-size="14.00" fill="#888888">add point</text>
</g>
<!-- draw.lastEvent = mousedown&#45;&gt;add point -->
<g id="edge6" class="edge">
<title>draw.lastEvent = mousedown-&gt;add point</title>
<path fill="none" stroke="#888800" d="M547.9481,-84.3326C613.2127,-83.9862 689.8021,-83.5796 741.0662,-83.3075"></path>
<polygon fill="#888800" stroke="#888800" points="741.3077,-86.8063 751.2889,-83.2532 741.2705,-79.8064 741.3077,-86.8063"></polygon>
<text text-anchor="middle" x="609.1905" y="-89.2" font-family="Times,serif" font-size="14.00" fill="#aaaaaa">up</text>
</g>
<!-- select box move -->
<g id="node4" class="node">
<title>select box move</title>
<ellipse fill="none" stroke="#888888" cx="1114.2132" cy="-165" rx="73.5791" ry="18"></ellipse>
<text text-anchor="middle" x="1114.2132" y="-160.8" font-family="Times,serif" font-size="14.00" fill="#888888">select box move</text>
</g>
<!-- select box start (draw.selectStart)&#45;&gt;select box move -->
<g id="edge3" class="edge">
<title>select box start (draw.selectStart)-&gt;select box move</title>
<path fill="none" stroke="#888800" d="M914.1309,-147.2275C954.1603,-150.7831 998.1392,-154.6896 1034.646,-157.9324"></path>
<polygon fill="#888800" stroke="#888800" points="1034.4647,-161.43 1044.7352,-158.8285 1035.0841,-154.4574 1034.4647,-161.43"></polygon>
<text text-anchor="middle" x="989.5758" y="-161.2" font-family="Times,serif" font-size="14.00" fill="#aaaaaa">move</text>
</g>
<!-- select box end -->
<g id="node5" class="node">
<title>select box end</title>
<ellipse fill="none" stroke="#888888" cx="1304.2796" cy="-129" rx="66.055" ry="18"></ellipse>
<text text-anchor="middle" x="1304.2796" y="-124.8" font-family="Times,serif" font-size="14.00" fill="#888888">select box end</text>
</g>
<!-- select box start (draw.selectStart)&#45;&gt;select box end -->
<g id="edge4" class="edge">
<title>select box start (draw.selectStart)-&gt;select box end</title>
<path fill="none" stroke="#888800" d="M918.6473,-127.6177C957.4679,-124.9892 1000.7502,-122.4968 1040.424,-121.2 1105.9794,-119.0572 1122.4488,-119.0038 1188.0025,-121.2 1201.752,-121.6606 1216.4007,-122.4269 1230.5009,-123.3038"></path>
<polygon fill="#888800" stroke="#888800" points="1230.4456,-126.8075 1240.6504,-123.9592 1230.8967,-119.822 1230.4456,-126.8075"></polygon>
<text text-anchor="middle" x="1114.2132" y="-126.2" font-family="Times,serif" font-size="14.00" fill="#aaaaaa">up</text>
</g>
<!-- select box move&#45;&gt;select box end -->
<g id="edge5" class="edge">
<title>select box move-&gt;select box end</title>
<path fill="none" stroke="#888800" d="M1172.5311,-153.9542C1193.8228,-149.9213 1218.0201,-145.3382 1239.8162,-141.2098"></path>
<polygon fill="#888800" stroke="#888800" points="1240.4687,-144.6486 1249.6427,-139.3487 1239.166,-137.7709 1240.4687,-144.6486"></polygon>
<text text-anchor="middle" x="1213.0025" y="-151.2" font-family="Times,serif" font-size="14.00" fill="#aaaaaa">up</text>
</g>
<!-- component.element -->
<g id="node7" class="node">
<title>component.element</title>
<ellipse fill="none" stroke="#888888" cx="93.3726" cy="-210" rx="86.8609" ry="18"></ellipse>
<text text-anchor="middle" x="93.3726" y="-205.8" font-family="Times,serif" font-size="14.00" fill="#888888">component.element</text>
</g>
<!-- element.lastEvent = mousedown -->
<g id="node8" class="node">
<title>element.lastEvent = mousedown</title>
<ellipse fill="none" stroke="#888888" cx="422.231" cy="-290" rx="136.7949" ry="18"></ellipse>
<text text-anchor="middle" x="422.231" y="-285.8" font-family="Times,serif" font-size="14.00" fill="#888888">element.lastEvent = mousedown</text>
</g>
<!-- component.element&#45;&gt;element.lastEvent = mousedown -->
<g id="edge7" class="edge">
<title>component.element-&gt;element.lastEvent = mousedown</title>
<path fill="none" stroke="#888800" d="M132.2586,-226.2228C153.4048,-234.557 180.1879,-244.3333 204.7452,-251 241.2911,-260.9213 281.9922,-268.9904 318.2092,-275.1603"></path>
<polygon fill="#888800" stroke="#888800" points="317.8573,-278.6501 328.2982,-276.8502 319.0137,-271.7462 317.8573,-278.6501"></polygon>
<text text-anchor="middle" x="236.0394" y="-269.2" font-family="Times,serif" font-size="14.00" fill="#aaaaaa">down</text>
</g>
<!-- hover -->
<g id="node13" class="node">
<title>hover</title>
<ellipse fill="none" stroke="#888888" cx="422.231" cy="-213" rx="33.0469" ry="18"></ellipse>
<text text-anchor="middle" x="422.231" y="-208.8" font-family="Times,serif" font-size="14.00" fill="#888888">hover</text>
</g>
<!-- component.element&#45;&gt;hover -->
<g id="edge13" class="edge">
<title>component.element-&gt;hover</title>
<path fill="none" stroke="#888800" d="M157.6472,-222.1858C173.0201,-224.6011 189.4191,-226.7695 204.7452,-228 265.8661,-232.9073 336.7304,-225.5957 380.5262,-219.5655"></path>
<polygon fill="#888800" stroke="#888800" points="381.1098,-223.0178 390.5185,-218.1468 380.1258,-216.0873 381.1098,-223.0178"></polygon>
<text text-anchor="middle" x="236.0394" y="-234.2" font-family="Times,serif" font-size="14.00" fill="#aaaaaa">enter</text>
</g>
<!-- reserved(do nothing) -->
<g id="node14" class="node">
<title>reserved(do nothing)</title>
<ellipse fill="none" stroke="#888888" cx="422.231" cy="-151" rx="91.9992" ry="18"></ellipse>
<text text-anchor="middle" x="422.231" y="-146.8" font-family="Times,serif" font-size="14.00" fill="#888888">reserved(do nothing)</text>
</g>
<!-- component.element&#45;&gt;reserved(do nothing) -->
<g id="edge15" class="edge">
<title>component.element-&gt;reserved(do nothing)</title>
<path fill="none" stroke="#888800" d="M152.5064,-196.7877C169.3502,-193.1808 187.7414,-189.3908 204.7452,-186.2 248.9318,-177.9083 298.3905,-169.8103 338.9652,-163.476"></path>
<polygon fill="#888800" stroke="#888800" points="339.7366,-166.8982 349.0807,-161.9045 338.662,-159.9812 339.7366,-166.8982"></polygon>
<text text-anchor="middle" x="236.0394" y="-191.2" font-family="Times,serif" font-size="14.00" fill="#aaaaaa">right down</text>
</g>
<!-- drag start (draw.dragTarget) -->
<g id="node9" class="node">
<title>drag start (draw.dragTarget)</title>
<ellipse fill="none" stroke="#888888" cx="798.9901" cy="-307" rx="120.3028" ry="18"></ellipse>
<text text-anchor="middle" x="798.9901" y="-302.8" font-family="Times,serif" font-size="14.00" fill="#888888">drag start (draw.dragTarget)</text>
</g>
<!-- element.lastEvent = mousedown&#45;&gt;drag start (draw.dragTarget) -->
<g id="edge8" class="edge">
<title>element.lastEvent = mousedown-&gt;drag start (draw.dragTarget)</title>
<path fill="none" stroke="#888800" d="M551.8901,-295.8504C591.2625,-297.627 634.4373,-299.5751 673.5284,-301.339"></path>
<polygon fill="#888800" stroke="#888800" points="673.7571,-304.8527 683.9047,-301.8072 674.0727,-297.8599 673.7571,-304.8527"></polygon>
<text text-anchor="middle" x="609.1905" y="-304.2" font-family="Times,serif" font-size="14.00" fill="#aaaaaa">draw.move</text>
</g>
<!-- toggle select -->
<g id="node12" class="node">
<title>toggle select</title>
<ellipse fill="none" stroke="#888888" cx="1114.2132" cy="-224" rx="59.6466" ry="18"></ellipse>
<text text-anchor="middle" x="1114.2132" y="-219.8" font-family="Times,serif" font-size="14.00" fill="#888888">toggle select</text>
</g>
<!-- element.lastEvent = mousedown&#45;&gt;toggle select -->
<g id="edge12" class="edge">
<title>element.lastEvent = mousedown-&gt;toggle select</title>
<path fill="none" stroke="#888800" d="M522.4691,-277.693C564.658,-272.766 614.3002,-267.299 659.2526,-263.2 820.3817,-248.5073 861.6099,-255.8129 1022.424,-238 1031.937,-236.9463 1041.9749,-235.6282 1051.7824,-234.2252"></path>
<polygon fill="#888800" stroke="#888800" points="1052.5032,-237.6569 1061.8879,-232.7398 1051.4852,-230.7313 1052.5032,-237.6569"></polygon>
<text text-anchor="middle" x="798.9901" y="-268.2" font-family="Times,serif" font-size="14.00" fill="#aaaaaa">up</text>
</g>
<!-- drag move -->
<g id="node10" class="node">
<title>drag move</title>
<ellipse fill="none" stroke="#888888" cx="1114.2132" cy="-334" rx="52.1301" ry="18"></ellipse>
<text text-anchor="middle" x="1114.2132" y="-329.8" font-family="Times,serif" font-size="14.00" fill="#888888">drag move</text>
</g>
<!-- drag start (draw.dragTarget)&#45;&gt;drag move -->
<g id="edge9" class="edge">
<title>drag start (draw.dragTarget)-&gt;drag move</title>
<path fill="none" stroke="#888800" d="M903.517,-315.9531C953.1864,-320.2075 1010.8196,-325.144 1053.2412,-328.7775"></path>
<polygon fill="#888800" stroke="#888800" points="1053.149,-332.2824 1063.4113,-329.6486 1053.7465,-325.3079 1053.149,-332.2824"></polygon>
<text text-anchor="middle" x="989.5758" y="-330.2" font-family="Times,serif" font-size="14.00" fill="#aaaaaa">draw.move</text>
</g>
<!-- drag end -->
<g id="node11" class="node">
<title>drag end</title>
<ellipse fill="none" stroke="#888888" cx="1304.2796" cy="-302" rx="44.6058" ry="18"></ellipse>
<text text-anchor="middle" x="1304.2796" y="-297.8" font-family="Times,serif" font-size="14.00" fill="#888888">drag end</text>
</g>
<!-- drag start (draw.dragTarget)&#45;&gt;drag end -->
<g id="edge10" class="edge">
<title>drag start (draw.dragTarget)-&gt;drag end</title>
<path fill="none" stroke="#888800" d="M900.9828,-297.3734C979.4644,-291.2309 1090.6144,-285.2711 1188.0025,-290.2 1208.7968,-291.2524 1231.603,-293.357 1251.4671,-295.5012"></path>
<polygon fill="#888800" stroke="#888800" points="1251.2355,-298.9969 1261.5604,-296.6207 1252.0073,-292.0396 1251.2355,-298.9969"></polygon>
<text text-anchor="middle" x="1114.2132" y="-295.2" font-family="Times,serif" font-size="14.00" fill="#aaaaaa">up</text>
</g>
<!-- drag move&#45;&gt;drag end -->
<g id="edge11" class="edge">
<title>drag move-&gt;drag end</title>
<path fill="none" stroke="#888800" d="M1161.196,-326.0899C1189.0013,-321.4085 1224.2542,-315.4733 1252.8101,-310.6655"></path>
<polygon fill="#888800" stroke="#888800" points="1253.7214,-314.0614 1263.0015,-308.9497 1252.5591,-307.1586 1253.7214,-314.0614"></polygon>
<text text-anchor="middle" x="1213.0025" y="-322.2" font-family="Times,serif" font-size="14.00" fill="#aaaaaa">up</text>
</g>
<!-- hover&#45;&gt;component.element -->
<g id="edge14" class="edge">
<title>hover-&gt;component.element</title>
<path fill="none" stroke="#888800" d="M389.3047,-211.4097C357.9545,-209.9802 309.4415,-207.9881 267.3336,-207.2 239.5214,-206.6795 232.56,-206.8504 204.7452,-207.2 199.9222,-207.2606 194.9821,-207.336 189.9933,-207.4227"></path>
<polygon fill="#888800" stroke="#888800" points="189.6397,-203.9286 179.707,-207.6154 189.7708,-210.9274 189.6397,-203.9286"></polygon>
<text text-anchor="middle" x="236.0394" y="-212.2" font-family="Times,serif" font-size="14.00" fill="#aaaaaa">leave</text>
</g>
<!-- component.cover -->
<g id="node15" class="node">
<title>component.cover</title>
<ellipse fill="none" stroke="#888888" cx="798.9901" cy="-200" rx="77.6155" ry="18"></ellipse>
<text text-anchor="middle" x="798.9901" y="-195.8" font-family="Times,serif" font-size="14.00" fill="#888888">component.cover</text>
</g>
<!-- hover&#45;&gt;component.cover -->
<g id="edge19" class="edge">
<title>hover-&gt;component.cover</title>
<path fill="none" stroke="#888800" d="M455.3356,-211.8577C512.0748,-209.9 629.6727,-205.8423 711.3992,-203.0223"></path>
<polygon fill="#888800" stroke="#888800" points="711.8077,-206.5104 721.681,-202.6675 711.5662,-199.5146 711.8077,-206.5104"></polygon>
<text text-anchor="middle" x="609.1905" y="-212.2" font-family="Times,serif" font-size="14.00" fill="#aaaaaa">cover.leave</text>
</g>
<!-- reserved(do nothing)&#45;&gt;component.element -->
<g id="edge16" class="edge">
<title>reserved(do nothing)-&gt;component.element</title>
<path fill="none" stroke="#888800" d="M337.2191,-144.1386C296.5896,-143.0048 247.59,-144.793 204.7452,-155.2 177.8105,-161.7424 149.8263,-175.5446 128.6468,-187.6597"></path>
<polygon fill="#888800" stroke="#888800" points="126.8667,-184.6461 120.0094,-192.7225 130.4065,-190.6852 126.8667,-184.6461"></polygon>
<text text-anchor="middle" x="236.0394" y="-160.2" font-family="Times,serif" font-size="14.00" fill="#aaaaaa">right up</text>
</g>
<!-- component.cover&#45;&gt;toggle select -->
<g id="edge17" class="edge">
<title>component.cover-&gt;toggle select</title>
<path fill="none" stroke="#888800" d="M873.2944,-205.6573C925.6578,-209.644 995.2369,-214.9416 1046.1542,-218.8182"></path>
<polygon fill="#888800" stroke="#888800" points="1046.1635,-222.329 1056.4004,-219.5983 1046.695,-215.3492 1046.1635,-222.329"></polygon>
<text text-anchor="middle" x="989.5758" y="-221.2" font-family="Times,serif" font-size="14.00" fill="#aaaaaa">cover.down</text>
</g>
<!-- component.cover&#45;&gt;hover -->
<g id="edge18" class="edge">
<title>component.cover-&gt;hover</title>
<path fill="none" stroke="#888800" d="M739.1475,-188.3907C694.4696,-181.2461 631.9345,-174.4609 577.1284,-180.2 537.4605,-184.3538 492.9986,-194.3359 461.9204,-202.2051"></path>
<polygon fill="#888800" stroke="#888800" points="460.7308,-198.8972 451.9201,-204.7813 462.4771,-205.6759 460.7308,-198.8972"></polygon>
<text text-anchor="middle" x="609.1905" y="-185.2" font-family="Times,serif" font-size="14.00" fill="#aaaaaa">cover.enter</text>
</g>
<!-- draw.appendingPoint -->
<g id="node16" class="node">
<title>draw.appendingPoint</title>
<ellipse fill="none" stroke="#888888" cx="93.3726" cy="-370" rx="93.2453" ry="18"></ellipse>
<text text-anchor="middle" x="93.3726" y="-365.8" font-family="Times,serif" font-size="14.00" fill="#888888">draw.appendingPoint</text>
</g>
<!-- appending move -->
<g id="node17" class="node">
<title>appending move</title>
<ellipse fill="none" stroke="#888888" cx="422.231" cy="-397" rx="75.2692" ry="18"></ellipse>
<text text-anchor="middle" x="422.231" y="-392.8" font-family="Times,serif" font-size="14.00" fill="#888888">appending move</text>
</g>
<!-- draw.appendingPoint&#45;&gt;appending move -->
<g id="edge20" class="edge">
<title>draw.appendingPoint-&gt;appending move</title>
<path fill="none" stroke="#888800" d="M179.3467,-377.0587C229.1833,-381.1504 291.579,-386.2732 340.6493,-390.302"></path>
<polygon fill="#888800" stroke="#888800" points="340.6559,-393.8142 350.9088,-391.1443 341.2288,-386.8377 340.6559,-393.8142"></polygon>
<text text-anchor="middle" x="236.0394" y="-387.2" font-family="Times,serif" font-size="14.00" fill="#aaaaaa">move</text>
</g>
<!-- end appending mode -->
<g id="node18" class="node">
<title>end appending mode</title>
<ellipse fill="none" stroke="#888888" cx="798.9901" cy="-374" rx="91.4848" ry="18"></ellipse>
<text text-anchor="middle" x="798.9901" y="-369.8" font-family="Times,serif" font-size="14.00" fill="#888888">end appending mode</text>
</g>
<!-- draw.appendingPoint&#45;&gt;end appending mode -->
<g id="edge21" class="edge">
<title>draw.appendingPoint-&gt;end appending mode</title>
<path fill="none" stroke="#888800" d="M175.4726,-361.228C209.4328,-358.0129 249.2377,-354.7765 285.3336,-353.2 406.9042,-347.8903 437.5556,-347.9387 559.1284,-353.2 608.6285,-355.3422 663.7138,-359.96 708.5996,-364.3016"></path>
<polygon fill="#888800" stroke="#888800" points="708.3085,-367.7898 718.6019,-365.2808 708.9905,-360.8231 708.3085,-367.7898"></polygon>
<text text-anchor="middle" x="422.231" y="-357.2" font-family="Times,serif" font-size="14.00" fill="#aaaaaa">down</text>
</g>
<!-- appending move&#45;&gt;end appending mode -->
<g id="edge22" class="edge">
<title>appending move-&gt;end appending mode</title>
<path fill="none" stroke="#888800" d="M495.3206,-392.5381C554.0237,-388.9545 636.9963,-383.8892 701.3798,-379.9588"></path>
<polygon fill="#888800" stroke="#888800" points="701.7786,-383.4411 711.5468,-379.3381 701.352,-376.4541 701.7786,-383.4411"></polygon>
<text text-anchor="middle" x="609.1905" y="-390.2" font-family="Times,serif" font-size="14.00" fill="#aaaaaa">down</text>
</g>
<!-- menu (draw.menu)&#45;&gt;draw -->
<g id="edge24" class="edge">
<title>menu (draw.menu)-&gt;draw</title>
<path fill="none" stroke="#888800" d="M348.3643,-9.1954C306.0974,-5.776 252.2015,-4.1574 204.7452,-11.2 178.5725,-15.084 150.0355,-23.838 128.4007,-31.4637"></path>
<polygon fill="#888800" stroke="#888800" points="127.1957,-28.1776 118.9793,-34.8665 129.5736,-34.7613 127.1957,-28.1776"></polygon>
<text text-anchor="middle" x="236.0394" y="-16.2" font-family="Times,serif" font-size="14.00" fill="#aaaaaa">draw.down</text>
</g>
</g>
</svg>
