<svg width="36" height="36" viewBox="0 0 36 36" fill="none" xmlns="http://www.w3.org/2000/svg">
<path d="M6.87836 17.9799C6.81603 17.4798 6.78401 16.9831 6.78401 16.5461C6.78401 10.0239 12.3716 4.64363 19.1451 4.64363C22.3046 4.64363 25.2626 5.87027 27.4384 7.78317L26.3473 8.85206C26.1014 9.08881 25.6094 9.41664 25.704 9.74471C25.8176 10.0543 26.4798 10.3095 26.8203 10.3823C27.0107 10.4191 32.0023 12.0257 32.7675 12.1738C33.272 12.2714 34.1244 11.9252 33.9847 11.2083C33.9463 11.0247 33.7766 9.25889 32.7675 4.88654C32.691 4.261 32.6034 3.52018 32.263 3.42908C31.9415 3.33799 31.298 4.02426 31.0521 4.261L30.1251 5.13537C27.2681 2.56681 23.3452 1 19.1451 1C10.2716 1 3 8.00189 3 16.5461V16.5824C3 17.096 3.02439 17.4929 3.05272 17.7965C3.09041 18.1988 3.39836 18.5283 3.80977 18.6078L5.75326 18.9819C6.3859 19.1038 6.95473 18.5931 6.87836 17.9799Z" fill="url(#paint0_diamond)"/>
<path d="M6.87836 17.9799C6.81603 17.4798 6.78401 16.9831 6.78401 16.5461C6.78401 10.0239 12.3716 4.64363 19.1451 4.64363C22.3046 4.64363 25.2626 5.87027 27.4384 7.78317L26.3473 8.85206C26.1014 9.08881 25.6094 9.41664 25.704 9.74471C25.8176 10.0543 26.4798 10.3095 26.8203 10.3823C27.0107 10.4191 32.0023 12.0257 32.7675 12.1738C33.272 12.2714 34.1244 11.9252 33.9847 11.2083C33.9463 11.0247 33.7766 9.25889 32.7675 4.88654C32.691 4.261 32.6034 3.52018 32.263 3.42908C31.9415 3.33799 31.298 4.02426 31.0521 4.261L30.1251 5.13537C27.2681 2.56681 23.3452 1 19.1451 1C10.2716 1 3 8.00189 3 16.5461V16.5824C3 17.096 3.02439 17.4929 3.05272 17.7965C3.09041 18.1988 3.39836 18.5283 3.80977 18.6078L5.75326 18.9819C6.3859 19.1038 6.95473 18.5931 6.87836 17.9799Z" fill="url(#paint1_diamond)"/>
<path d="M6.87836 17.9799C6.81603 17.4798 6.78401 16.9831 6.78401 16.5461C6.78401 10.0239 12.3716 4.64363 19.1451 4.64363C22.3046 4.64363 25.2626 5.87027 27.4384 7.78317L26.3473 8.85206C26.1014 9.08881 25.6094 9.41664 25.704 9.74471C25.8176 10.0543 26.4798 10.3095 26.8203 10.3823C27.0107 10.4191 32.0023 12.0257 32.7675 12.1738C33.272 12.2714 34.1244 11.9252 33.9847 11.2083C33.9463 11.0247 33.7766 9.25889 32.7675 4.88654C32.691 4.261 32.6034 3.52018 32.263 3.42908C31.9415 3.33799 31.298 4.02426 31.0521 4.261L30.1251 5.13537C27.2681 2.56681 23.3452 1 19.1451 1C10.2716 1 3 8.00189 3 16.5461V16.5824C3 17.096 3.02439 17.4929 3.05272 17.7965C3.09041 18.1988 3.39836 18.5283 3.80977 18.6078L5.75326 18.9819C6.3859 19.1038 6.95473 18.5931 6.87836 17.9799Z" stroke="url(#paint2_linear)"/>
<path d="M33.1959 17.3787L31.2468 17.0177C30.6135 16.9004 30.0407 17.3829 30.1185 17.9644C30.186 18.4662 30.2161 18.9541 30.2161 19.326C30.2161 25.4821 24.6287 30.5608 17.8553 30.5608C14.6959 30.5608 11.738 29.4029 9.56226 27.5801L10.6533 26.5884C10.8992 26.365 10.9938 26.0383 10.8992 25.7286C10.7856 25.4362 10.5208 25.2127 10.1803 25.144C9.98992 25.1091 5.27236 23.5323 4.13249 23.3498C3.81076 23.2983 3.48903 23.3843 3.28111 23.5905C3.05398 23.7797 2.95938 24.0892 3.01604 24.3644C3.05447 24.5374 3.96088 28.7965 4.35963 30.4345C4.43501 30.7442 4.68111 31.0021 5.02156 31.0879C5.41646 31.1779 5.74607 31.069 5.94857 30.8644L6.85686 30.0391C9.71351 32.4638 13.6364 34 17.8553 34C26.7285 34 34 27.3909 34 19.326V19.2743C34 18.8932 33.9847 18.519 33.9497 18.1471C33.9138 17.7671 33.6071 17.455 33.1959 17.3787Z" fill="url(#paint3_diamond)"/>
<path d="M33.1959 17.3787L31.2468 17.0177C30.6135 16.9004 30.0407 17.3829 30.1185 17.9644C30.186 18.4662 30.2161 18.9541 30.2161 19.326C30.2161 25.4821 24.6287 30.5608 17.8553 30.5608C14.6959 30.5608 11.738 29.4029 9.56226 27.5801L10.6533 26.5884C10.8992 26.365 10.9938 26.0383 10.8992 25.7286C10.7856 25.4362 10.5208 25.2127 10.1803 25.144C9.98992 25.1091 5.27236 23.5323 4.13249 23.3498C3.81076 23.2983 3.48903 23.3843 3.28111 23.5905C3.05398 23.7797 2.95938 24.0892 3.01604 24.3644C3.05447 24.5374 3.96088 28.7965 4.35963 30.4345C4.43501 30.7442 4.68111 31.0021 5.02156 31.0879C5.41646 31.1779 5.74607 31.069 5.94857 30.8644L6.85686 30.0391C9.71351 32.4638 13.6364 34 17.8553 34C26.7285 34 34 27.3909 34 19.326V19.2743C34 18.8932 33.9847 18.519 33.9497 18.1471C33.9138 17.7671 33.6071 17.455 33.1959 17.3787Z" fill="url(#paint4_diamond)"/>
<path d="M33.1959 17.3787L31.2468 17.0177C30.6135 16.9004 30.0407 17.3829 30.1185 17.9644C30.186 18.4662 30.2161 18.9541 30.2161 19.326C30.2161 25.4821 24.6287 30.5608 17.8553 30.5608C14.6959 30.5608 11.738 29.4029 9.56226 27.5801L10.6533 26.5884C10.8992 26.365 10.9938 26.0383 10.8992 25.7286C10.7856 25.4362 10.5208 25.2127 10.1803 25.144C9.98992 25.1091 5.27236 23.5323 4.13249 23.3498C3.81076 23.2983 3.48903 23.3843 3.28111 23.5905C3.05398 23.7797 2.95938 24.0892 3.01604 24.3644C3.05447 24.5374 3.96088 28.7965 4.35963 30.4345C4.43501 30.7442 4.68111 31.0021 5.02156 31.0879C5.41646 31.1779 5.74607 31.069 5.94857 30.8644L6.85686 30.0391C9.71351 32.4638 13.6364 34 17.8553 34C26.7285 34 34 27.3909 34 19.326V19.2743C34 18.8932 33.9847 18.519 33.9497 18.1471C33.9138 17.7671 33.6071 17.455 33.1959 17.3787Z" stroke="url(#paint5_linear)"/>
<defs>
<radialGradient id="paint0_diamond" cx="0" cy="0" r="1" gradientUnits="userSpaceOnUse" gradientTransform="translate(24.5893 2.58824) rotate(-113.639) scale(24.8499 42.212)">
<stop stop-color="#696969"/>
<stop offset="1" stop-color="#222222" stop-opacity="0.81"/>
</radialGradient>
<radialGradient id="paint1_diamond" cx="0" cy="0" r="1" gradientUnits="userSpaceOnUse" gradientTransform="translate(6.61688 -0.329568) rotate(131.031) scale(7.08383 37.2173)">
<stop stop-color="white"/>
<stop offset="1" stop-color="#7B7B7B" stop-opacity="0"/>
</radialGradient>
<linearGradient id="paint2_linear" x1="5.58348" y1="-4.26707" x2="9.66028" y2="19.9994" gradientUnits="userSpaceOnUse">
<stop/>
<stop offset="1" stop-color="white" stop-opacity="0.21"/>
</linearGradient>
<radialGradient id="paint3_diamond" cx="0" cy="0" r="1" gradientUnits="userSpaceOnUse" gradientTransform="translate(12.8167 25.5) rotate(-90) scale(21.7812 39.7187)">
<stop stop-color="#696969"/>
<stop offset="1" stop-color="#222222" stop-opacity="0.81"/>
</radialGradient>
<radialGradient id="paint4_diamond" cx="0" cy="0" r="1" gradientUnits="userSpaceOnUse" gradientTransform="translate(6.61667 16.2031) rotate(132.656) scale(6.86247 36.2814)">
<stop stop-color="white"/>
<stop offset="1" stop-color="#7B7B7B" stop-opacity="0"/>
</radialGradient>
<linearGradient id="paint5_linear" x1="5.58333" y1="12.4844" x2="9.23075" y2="35.4708" gradientUnits="userSpaceOnUse">
<stop/>
<stop offset="1" stop-color="white" stop-opacity="0.21"/>
</linearGradient>
</defs>
</svg>

